<svg xmlns="http://www.w3.org/2000/svg" viewBox="0 0 24 24" width="24" height="24"><path d="M0 0h24v24H0z" fill="none"/><path d="M3 17.25V21h3.75L17.81 9.94l-3.75-3.75L3 17.25zM20.71 7.04a1 1 0 0 0 0-1.41l-2.34-2.34a1 1 0 0 0-1.41 0l-1.83 1.83 3.75 3.75 1.83-1.83z" fill="none" stroke="#000000" stroke-width="1.5"/><path d="M12 20a7 7 0 0 0 1-.07V18a5 5 0 1 1 4.93-5.93l1.94-.52A7 7 0 1 0 12 20z" fill="none" stroke="#000000" stroke-width="1.5" opacity="0.5"/><circle cx="19" cy="19" r="3" fill="none" stroke="#000000" stroke-width="1.5"/><path d="M19 17v2h-2v1h2v2h1v-2h2v-1h-2v-2z" fill="#000000"/></svg>