<svg xmlns="http://www.w3.org/2000/svg" viewBox="0 0 24 24" width="24" height="24"><path d="M0 0h24v24H0z" fill="none"/><path d="M14 2H6a2 2 0 0 0-2 2v16a2 2 0 0 0 2 2h12a2 2 0 0 0 2-2V8l-6-6zm-1 7V3.5L18.5 9H13z" fill="#E8A837" opacity="0.7"/><path d="M12 12.5a1.5 1.5 0 1 0 0 3 1.5 1.5 0 0 0 0-3zm-4.5.5h1a.5.5 0 0 0 0-1h-1a.5.5 0 0 0 0 1zm9 0h1a.5.5 0 0 0 0-1h-1a.5.5 0 0 0 0 1zm-4.5-4.5V7.5a.5.5 0 0 0-1 0V8.5a.5.5 0 0 0 1 0zm0 9V16.5a.5.5 0 0 0-1 0V17.5a.5.5 0 0 0 1 0zm-3.18-7.68-.71-.71a.5.5 0 0 0-.71.71l.71.71a.5.5 0 0 0 .71-.71zm6.36 6.36-.71-.71a.5.5 0 0 0-.71.71l.71.71a.5.5 0 0 0 .71-.71zm.71-6.36a.5.5 0 0 0-.71-.71l-.71.71a.5.5 0 0 0 .71.71l.71-.71zm-6.36 6.36a.5.5 0 0 0-.71-.71l-.71.71a.5.5 0 0 0 .71.71l.71-.71z" fill="#E8A837"/></svg>