<svg xmlns="http://www.w3.org/2000/svg" viewBox="0 0 24 24" width="24" height="24"><path d="M0 0h24v24H0z" fill="none"/><path d="M12 6V3L8 7l4 4V8a4 4 0 0 1 4 4h2a6 6 0 0 0-6-6z" fill="#27AE60"/><path d="M19.14 12.94a7.3 7.3 0 0 0 .06-.94 7.3 7.3 0 0 0-.06-.94l2.03-1.58a.49.49 0 0 0 .12-.61l-1.92-3.32a.49.49 0 0 0-.59-.22l-2.39.96a7.04 7.04 0 0 0-1.62-.94l-.36-2.54A.484.484 0 0 0 14 3h-4a.484.484 0 0 0-.48.41l-.36 2.54a7.04 7.04 0 0 0-1.62.94l-2.39-.96a.477.477 0 0 0-.59.22L2.74 9.47a.485.485 0 0 0 .12.61l2.03 1.58A7.3 7.3 0 0 0 4.83 12c0 .31.02.63.07.94l-2.03 1.58a.49.49 0 0 0-.12.61l1.92 3.32c.12.22.37.29.59.22l2.39-.96c.5.38 1.04.7 1.62.94l.36 2.54c.05.24.27.41.48.41h4c.24 0 .44-.17.47-.41l.36-2.54a7.04 7.04 0 0 0 1.62-.94l2.39.96c.22.08.47 0 .59-.22l1.92-3.32a.485.485 0 0 0-.12-.61l-2.03-1.58zM12 15.6a3.6 3.6 0 1 1 0-7.2 3.6 3.6 0 0 1 0 7.2z" fill="#546E7A" opacity="0.6"/></svg>